<?xml version="1.0" encoding="utf-8"?>
<!-- Generator: Adobe Illustrator 26.5.0, SVG Export Plug-In . SVG Version: 6.00 Build 0)  -->
<svg version="1.1" id="Layer_1" xmlns="http://www.w3.org/2000/svg" xmlns:xlink="http://www.w3.org/1999/xlink" x="0px" y="0px"
	 viewBox="0 0 600 150" style="enable-background:new 0 0 600 150;" xml:space="preserve">
<g>
	<path d="M456.37,68.95c0.03-0.6,0.01-1.33-0.12-2.23c-0.56-3.86-4.92-4.61-6.76-7.36c-0.23-0.33-0.26-0.02-0.21,0.2l5.16,23.78
		c0.07,0.31-0.11,0.44-0.42,0.39c-0.79-0.14-1.78,0.1-2.65,0.71c-1.44,1-2.04,2.62-1.34,3.62c0.7,1,2.43,1.01,3.86,0.01
		c0.95-0.66,1.53-1.59,1.62-2.44c0.03-0.31-0.07-0.81-0.14-1.12c-0.47-2.16-2.15-9.92-2.15-9.92c-0.19-0.89,0.08-1.56,1.82-0.44
		c0.61,0.39,1.07,0.75,1.44,1.1c0.23,0.21,0.36,0.59,0.3,0.8c-0.05,0.21-0.1,0.34-0.11,0.38c-0.04,0.17,0.04,0.19,0.17,0.04
		c0.02-0.02,0.08-0.09,0.15-0.23c0.08-0.13,0.27-0.04,0.41,0.24c0.14,0.27,0.25,0.55,0.35,0.85c0.52,1.68,0.35,3.04,0.19,3.76
		c-0.07,0.3-0.2,0.7-0.11,0.69c0.03,0,0.08-0.03,0.14-0.1c0.08-0.09,1.02-1.25,0.53-4.56c-0.11-0.76-0.37-1.4-0.73-1.96
		c-0.17-0.27-0.3-0.72-0.28-1.03c0.03-0.6,0.01-1.34-0.13-2.23c-0.11-0.76-0.37-1.4-0.73-1.96
		C456.48,69.71,456.35,69.27,456.37,68.95z M456.57,73.81c-1.19-1.05-2.68-1.84-3.83-2.9c-0.23-0.21-0.45-0.65-0.52-0.95l-0.12-0.56
		c-0.19-0.89,0.08-1.56,1.82-0.44c0.61,0.39,1.07,0.75,1.44,1.1c0.23,0.22,0.36,0.59,0.3,0.8c-0.05,0.21-0.1,0.34-0.11,0.38
		c-0.04,0.17,0.05,0.19,0.17,0.05c0.02-0.02,0.08-0.09,0.15-0.23c0.08-0.14,0.27-0.04,0.42,0.24c0.14,0.27,0.25,0.55,0.35,0.85
		c0.17,0.53,0.26,1.04,0.31,1.49C456.97,73.94,456.8,74.02,456.57,73.81z M455.43,68.6c-1.19-1.05-2.68-1.84-3.83-2.9
		c-0.23-0.21-0.45-0.65-0.52-0.95l-0.12-0.56c-0.19-0.89,0.08-1.56,1.82-0.44c1.74,1.12,2.33,1.96,2.73,3.18
		c0.17,0.53,0.26,1.03,0.31,1.49C455.84,68.73,455.67,68.81,455.43,68.6z"/>
	<path d="M591.04,67.66L591.04,67.66c-3.53-0.01-323.53-0.54-472.23-0.5c-148.68-0.05-154.22,1.21-4.07,1.16
		c150.14,0.05,472.95-0.5,476.44-0.5v0c2.33-0.01,4.13-0.04,4.13-0.08C595.31,67.7,593.43,67.67,591.04,67.66z"/>
	<path d="M591.04,86.03L591.04,86.03c-3.53-0.01-323.53-0.54-472.23-0.5c-148.68-0.05-154.22,1.21-4.07,1.16
		c150.14,0.05,472.95-0.5,476.44-0.5v0c2.33-0.01,4.13-0.04,4.13-0.08C595.31,86.07,593.43,86.04,591.04,86.03z"/>
	<path d="M591.04,72.25L591.04,72.25c-3.53-0.01-323.53-0.54-472.23-0.5c-148.68-0.05-154.22,1.21-4.07,1.16
		c150.14,0.05,472.95-0.5,476.44-0.5v0c2.33-0.01,4.13-0.04,4.13-0.08C595.31,72.29,593.43,72.26,591.04,72.25z"/>
	<path d="M591.04,76.84L591.04,76.84c-3.53-0.01-323.53-0.54-472.23-0.5c-148.68-0.05-154.22,1.21-4.07,1.16
		C264.88,77.55,587.69,77,591.18,77v0c2.33-0.01,4.13-0.04,4.13-0.08C595.31,76.89,593.43,76.85,591.04,76.84z"/>
	<path d="M591.04,81.43L591.04,81.43c-3.53-0.01-323.53-0.54-472.23-0.5c-148.68-0.05-154.22,1.21-4.07,1.16
		c150.14,0.05,472.95-0.5,476.44-0.5v0c2.33-0.01,4.13-0.04,4.13-0.08C595.31,81.48,593.43,81.45,591.04,81.43z"/>
	<path d="M174.98,77.91l1.99,11.45c0.05,0.26-0.11,0.37-0.37,0.32c-0.67-0.14-1.51,0.02-2.28,0.5c-1.26,0.8-1.82,2.15-1.27,3.03
		c0.56,0.88,2.02,0.95,3.28,0.15c0.84-0.53,1.37-1.32,1.47-2.04c0.03-0.26-0.04-0.69-0.09-0.96c-0.32-1.85-1.47-8.47-1.47-8.47
		c-0.13-0.76,0.12-1.32,1.56-0.31c1.44,1.01,1.91,1.75,2.2,2.8c0.38,1.45,0.19,2.6,0.03,3.2c-0.07,0.26-0.2,0.58-0.12,0.58
		c0.03,0,0.07-0.03,0.12-0.08c0.07-0.08,0.91-1.03,0.62-3.85c-0.34-3.3-4.01-4.09-5.48-6.49C174.98,77.47,174.95,77.73,174.98,77.91
		z"/>
	<path d="M74.95,58.16c-0.11-0.24-0.37-0.32-0.59-0.17l-8.37,5.68c-0.22,0.15-0.31,0.47-0.21,0.71l4.57,10.46
		c0.11,0.25-0.02,0.39-0.29,0.4c-0.68,0.02-1.46,0.38-2.09,1.03c-1.03,1.07-1.26,2.52-0.51,3.24c0.75,0.72,2.19,0.44,3.22-0.63
		c0.69-0.72,1.02-1.61,0.94-2.34c-0.03-0.26-0.21-0.66-0.32-0.91c-0.73-1.67-3.31-7.58-4.04-9.25c-0.11-0.24-0.01-0.56,0.21-0.71
		l7.43-5.04c0.22-0.15,0.49-0.07,0.59,0.17l3.52,8.05c0.11,0.24-0.02,0.39-0.29,0.4c-0.68,0.02-1.46,0.38-2.08,1.03
		c-1.03,1.07-1.26,2.53-0.51,3.24c0.75,0.72,2.19,0.44,3.22-0.63c0.88-0.92,1.17-2.11,0.77-2.89L74.95,58.16z M66.57,64.79
		l-0.01-0.02c-0.11-0.24-0.01-0.56,0.21-0.71l7.43-5.04c0.22-0.15,0.49-0.07,0.59,0.17l0.01,0.02c0.11,0.24,0.01,0.56-0.21,0.71
		l-7.43,5.04C66.94,65.11,66.68,65.03,66.57,64.79z"/>
	<path d="M53.48,72.06c-0.32,0.09-0.66-0.05-0.77-0.36l-0.46-1.23c-0.12-0.31-0.06-0.78,0.11-1.07c0.98-1.61,1.79-3.38,2.08-4.27
		c0.36-1.12,0.62-2.55,0.05-4.44c-0.67-2.2-2.77-2.65-4.24-0.94c-1.47,1.72-1.17,4.24-0.65,5.64c0.29,0.77,0.76,2.03,1.04,2.76
		c0.12,0.31,0.02,0.74-0.21,0.98c-0.85,0.89-2.73,3.1-3.31,5.78c-0.69,3.19,0.84,5.6,3.28,6.89c1.05,0.55,2.89,0.67,4.67-0.05
		c0.31-0.12,0.64,0,0.75,0.31l1.79,4.8c0.4,1.08-0.14,2.31-1.22,2.72c-0.37,0.13-0.77-0.05-0.91-0.41
		c-0.11-0.29-0.01-0.61,0.22-0.79c0.07-0.06,0.12-0.11,0.17-0.16c0.42-0.47,0.57-1.15,0.34-1.78c-0.26-0.69-0.92-1.13-1.62-1.13
		c-0.21,0-0.42,0.03-0.62,0.11c-0.24,0.09-0.44,0.22-0.61,0.39c-0.07,0.08-0.15,0.17-0.21,0.25c-0.59,0.78-0.79,1.85-0.42,2.84
		c0.57,1.54,2.29,2.33,3.83,1.75c1.54-0.57,2.33-2.29,1.75-3.83l-1.9-5.09c-0.12-0.31,0.02-0.7,0.28-0.9
		c0.34-0.27,0.67-0.57,0.99-0.92c2.27-2.59,1.3-5.36,0.03-6.68C56.61,72.04,55.17,71.55,53.48,72.06z M53.87,63.51
		c-0.11,1.72-1.18,3.19-2.09,4.21c-0.22,0.25-0.5,0.19-0.61-0.12c-0.34-0.95-0.54-1.59-0.76-2.82c-0.27-1.48,0.04-3.07,1.31-3.54
		C52.98,60.77,53.96,62.01,53.87,63.51z M51.23,71.1c0.18-0.27,0.43-0.24,0.55,0.07l0.32,0.85c0.12,0.31-0.02,0.7-0.26,0.93
		c-1.04,1.02-1.17,2.57-0.82,3.52c0,0,0.39,1.06,0.75-0.35c0.11-0.44,0.41-0.83,0.8-1.16c0.26-0.21,0.58-0.09,0.7,0.22l1.85,4.97
		c0.12,0.31-0.04,0.66-0.37,0.7c-1.4,0.19-3.52-0.46-4.78-2.7C48.65,75.81,49.98,72.97,51.23,71.1z M56.45,80.08
		c-0.26,0.2-0.59,0.08-0.7-0.23l-1.86-4.98c-0.11-0.31,0.04-0.67,0.35-0.76c0.46-0.14,0.89-0.2,1.23-0.17
		c1.1,0.1,2.49,1.14,2.56,3.01C58.07,78.28,57.35,79.39,56.45,80.08z"/>
	<path d="M104.92,53.32c-0.09-0.33-0.2-0.09-0.23,0.1l-0.56,4.29c-0.5,3.85-1.16,8.9-1.16,8.9l-0.34,2.62
		c-0.03,0.26-0.22,0.32-0.45,0.19c-0.59-0.34-1.45-0.43-2.32-0.2c-1.44,0.39-2.38,1.51-2.11,2.52c0.27,1,1.65,1.5,3.09,1.12
		c0.96-0.26,1.7-0.85,2.01-1.52c0.11-0.24,0.16-0.68,0.2-0.94c0.09-0.66,0.25-1.9,0.42-3.25c0.03-0.26,0.09-0.69,0.12-0.96
		c0.16-1.21,0.56-4.32,0.56-4.32c0.1-0.77,0.51-1.22,1.58,0.17c0.4,0.53,0.69,0.97,0.88,1.38c0.11,0.24,0.1,0.6-0.02,0.79
		c-0.12,0.18-0.21,0.29-0.23,0.33c-0.08,0.13-0.02,0.16,0.12,0.09c0.02-0.01,0.1-0.06,0.22-0.17c0.11-0.1,0.25,0.01,0.27,0.27
		c0.02,0.21,0.02,0.42,0.02,0.64c-0.07,1.5-0.59,2.53-0.92,3.07c-0.14,0.23-0.36,0.5-0.29,0.52c0.03,0.01,0.07-0.01,0.14-0.04
		c0.09-0.05,1.17-0.72,1.73-3.49c0.12-0.61,0.11-1.16,0-1.69c-0.06-0.26-0.03-0.66,0.07-0.91c0.18-0.45,0.35-1.01,0.49-1.7
		C108.88,57.89,105.61,56.04,104.92,53.32z M104.68,57.9l0.04-0.31c0.1-0.77,0.51-1.23,1.58,0.17c1.07,1.39,1.3,2.23,1.27,3.32
		c-0.02,0.41-0.07,0.79-0.14,1.12c-0.06,0.26-0.21,0.27-0.34,0.04c-0.65-1.19-1.64-2.27-2.26-3.46
		C104.71,58.55,104.65,58.11,104.68,57.9z"/>
	<path d="M87.17,76.39c-0.15-0.04-0.33,0.13-0.4,0.38l-3.18,10.88c-0.08,0.25-0.26,0.28-0.47,0.12c-0.54-0.42-1.37-0.65-2.27-0.55
		c-1.48,0.16-2.59,1.13-2.47,2.16c0.11,1.03,1.4,1.74,2.88,1.58c0.99-0.11,1.82-0.58,2.22-1.19c0.15-0.22,0.27-0.64,0.34-0.9
		c0.59-2.01,2.91-9.94,3.5-11.95C87.38,76.68,87.32,76.43,87.17,76.39z M81.14,89.95c-1.16,0.13-2.15-0.15-2.2-0.62
		c-0.05-0.47,0.85-0.95,2.02-1.08c1.16-0.12,2.15,0.16,2.2,0.63C83.21,89.34,82.3,89.82,81.14,89.95z"/>
	<path d="M164.86,58.81c0.04-0.26-0.15-0.47-0.41-0.46l-10.11,0.4c-0.27,0.01-0.51,0.23-0.55,0.5l-1.64,11.3
		c-0.04,0.26-0.22,0.32-0.45,0.18c-0.59-0.34-1.44-0.45-2.32-0.23c-1.44,0.37-2.4,1.48-2.15,2.48c0.26,1.01,1.63,1.53,3.07,1.16
		c0.97-0.25,1.72-0.83,2.03-1.49c0.11-0.24,0.17-0.67,0.21-0.94c0.26-1.8,1.19-8.19,1.45-9.99c0.04-0.26,0.29-0.49,0.55-0.5
		l8.97-0.36c0.27-0.01,0.45,0.19,0.41,0.46l-1.26,8.69c-0.04,0.26-0.22,0.32-0.45,0.19c-0.59-0.34-1.44-0.45-2.32-0.22
		c-1.44,0.37-2.4,1.48-2.15,2.49c0.26,1.01,1.63,1.53,3.07,1.16c1.23-0.31,2.11-1.17,2.18-2.04L164.86,58.81z"/>
	<g>
		<path d="M222.97,71.57c-0.85,0.64-1.26,1.6-0.89,2.58c0.42,1.1,1.65,1.64,2.74,1.22c0.71-0.27,1.18-0.87,1.32-1.56
			c0.02-0.08,0.03-0.16,0.03-0.23c0.01-0.17-0.02-0.34-0.08-0.51c-0.06-0.14-0.14-0.27-0.24-0.38c-0.33-0.37-0.87-0.52-1.37-0.33
			c-0.45,0.17-0.74,0.57-0.79,1.02c-0.01,0.05-0.01,0.11-0.01,0.16v0.01c0.01,0.21-0.11,0.41-0.32,0.49
			c-0.26,0.1-0.54-0.03-0.65-0.29c-0.28-0.64-0.07-1.34,0.73-1.87c0.8-0.53,2.19-0.42,3.26,0.36c1.25,0.87,2.05,2.44,2.12,4.06
			c0.2,3.39-2.57,6.16-4.97,6.92c-1.9,0.67-3.45,0.55-4.06,0.47c-0.16-0.02-0.17,0.1-0.02,0.14c0.6,0.14,2.13,0.41,4.17-0.13
			c1.28-0.35,2.71-1.11,3.84-2.37c1.13-1.25,1.9-3.02,1.86-4.87c0-1.84-0.89-3.67-2.33-4.69C225.93,70.72,224.01,70.79,222.97,71.57
			z"/>
		<path d="M232.71,75.57c0.16,0.38-0.15,0.87-0.7,1.09c-0.54,0.22-1.11,0.1-1.27-0.28c-0.16-0.38,0.15-0.87,0.7-1.09
			C231.99,75.06,232.56,75.19,232.71,75.57z"/>
		<path d="M232.71,79.18c0.16,0.38-0.15,0.87-0.7,1.09c-0.54,0.22-1.11,0.1-1.27-0.28c-0.16-0.38,0.15-0.87,0.7-1.09
			C231.99,78.68,232.56,78.8,232.71,79.18z"/>
	</g>
	<path d="M211.28,73.52l1.93-13.15c0.04-0.27-0.15-0.48-0.42-0.47l-21.2,0.83c-0.27,0.01-0.53,0.24-0.57,0.51l-1.71,11.62
		c-0.04,0.27-0.23,0.33-0.46,0.19c-0.61-0.36-1.48-0.47-2.39-0.24c-1.48,0.37-2.47,1.52-2.21,2.55c0.26,1.04,1.68,1.57,3.16,1.2
		c1-0.25,1.77-0.85,2.09-1.53c0.12-0.25,0.18-0.69,0.22-0.96c0.27-1.85,1.24-8.42,1.51-10.27c0.04-0.27,0.29-0.5,0.57-0.51
		l9.22-0.35c0.28-0.01,0.46,0.2,0.42,0.47l-1.31,8.94c-0.04,0.27-0.23,0.33-0.47,0.19c-0.61-0.35-1.48-0.46-2.38-0.24
		c-1.48,0.37-2.47,1.52-2.21,2.55c0.26,1.04,1.68,1.57,3.16,1.2c1.27-0.32,2.17-1.2,2.25-2.1l1.56-10.59
		c0.04-0.27,0.29-0.5,0.57-0.51l9.22-0.35c0.27-0.01,0.47,0.2,0.43,0.47l-1.31,8.94c-0.04,0.27-0.23,0.33-0.47,0.19
		c-0.61-0.35-1.48-0.46-2.38-0.23c-1.48,0.37-2.47,1.52-2.21,2.55c0.26,1.04,1.67,1.57,3.16,1.2
		C210.3,75.3,211.21,74.42,211.28,73.52z"/>
	<path d="M263.51,81.4l-3.03-12.94c-0.06-0.27-0.32-0.39-0.57-0.28l-19.42,8.55c-0.25,0.11-0.4,0.42-0.34,0.68l2.68,11.43
		c0.06,0.27-0.09,0.39-0.36,0.35c-0.69-0.11-1.55,0.11-2.31,0.65c-1.24,0.89-1.75,2.32-1.12,3.19c0.62,0.87,2.14,0.85,3.38-0.04
		c0.83-0.6,1.33-1.44,1.38-2.19c0.02-0.27-0.09-0.71-0.15-0.98c-0.43-1.82-1.94-8.29-2.36-10.11c-0.06-0.27,0.09-0.57,0.34-0.68
		l8.45-3.71c0.25-0.11,0.5,0.02,0.57,0.28l2.06,8.8c0.06,0.27-0.09,0.39-0.36,0.35c-0.69-0.11-1.55,0.11-2.3,0.65
		c-1.24,0.89-1.75,2.32-1.12,3.19c0.62,0.87,2.13,0.85,3.38-0.04c1.06-0.76,1.58-1.92,1.32-2.78l-2.43-10.42
		c-0.06-0.27,0.09-0.57,0.34-0.68l8.45-3.71c0.25-0.11,0.5,0.02,0.57,0.28l2.06,8.8c0.06,0.27-0.09,0.39-0.37,0.35
		c-0.69-0.1-1.55,0.12-2.3,0.66c-1.24,0.89-1.74,2.32-1.12,3.19c0.62,0.87,2.13,0.85,3.38-0.04
		C263.25,83.41,263.77,82.26,263.51,81.4z"/>
	<path d="M135.15,76.71c0-0.27-0.22-0.45-0.49-0.4l-20.86,3.98c-0.27,0.05-0.49,0.31-0.49,0.59v11.75c0,0.27-0.18,0.36-0.43,0.25
		c-0.65-0.26-1.54-0.24-2.4,0.11c-1.41,0.59-2.23,1.86-1.82,2.85c0.41,0.99,1.88,1.31,3.3,0.73c0.95-0.39,1.63-1.1,1.85-1.82
		c0.08-0.26,0.08-0.71,0.08-0.98c0-1.87,0-8.51,0-10.39c0-0.27,0.22-0.54,0.49-0.59l9.08-1.73c0.27-0.05,0.49,0.13,0.49,0.4v9.09
		c0,0.27-0.18,0.36-0.43,0.26c-0.65-0.26-1.53-0.24-2.39,0.11c-1.41,0.59-2.23,1.86-1.82,2.85c0.41,0.99,1.89,1.31,3.3,0.73
		c1.21-0.5,1.97-1.5,1.92-2.4V81.33c0-0.27,0.22-0.54,0.49-0.59l9.08-1.73c0.27-0.05,0.49,0.13,0.49,0.4v9.04
		c0,0.27-0.18,0.36-0.43,0.26c-0.65-0.26-1.53-0.24-2.39,0.11c-1.41,0.58-2.23,1.86-1.82,2.85c0.41,0.99,1.89,1.31,3.3,0.73
		c1.21-0.5,1.98-1.5,1.92-2.4V76.71z M134.09,78.28l-19.71,3.76c-0.27,0.05-0.49-0.13-0.49-0.4v-0.15c0-0.27,0.22-0.54,0.49-0.59
		l19.71-3.76c0.27-0.05,0.49,0.13,0.49,0.4v0.15C134.58,77.97,134.36,78.23,134.09,78.28z"/>
	<path d="M555.94,69.23c0-0.27-0.22-0.46-0.49-0.4l-20.86,3.98c-0.27,0.05-0.49,0.32-0.49,0.59v11.75c0,0.27-0.18,0.36-0.43,0.25
		c-0.65-0.27-1.54-0.25-2.4,0.11c-1.41,0.59-2.23,1.86-1.82,2.85c0.41,0.99,1.89,1.31,3.3,0.73c0.95-0.39,1.63-1.1,1.85-1.82
		c0.08-0.26,0.08-0.71,0.08-0.99c0-1.87,0-8.51,0-10.39c0-0.27,0.22-0.54,0.49-0.59l9.08-1.73c0.27-0.05,0.49,0.13,0.49,0.4v9.09
		c0,0.27-0.18,0.36-0.43,0.26c-0.65-0.26-1.53-0.24-2.39,0.11c-1.41,0.59-2.23,1.86-1.82,2.85c0.41,0.99,1.89,1.31,3.3,0.73
		c1.21-0.5,1.98-1.5,1.92-2.4V73.86c0-0.27,0.22-0.54,0.49-0.59l9.08-1.73c0.27-0.05,0.49,0.13,0.49,0.4v9.04
		c0,0.27-0.18,0.36-0.43,0.26c-0.65-0.26-1.53-0.24-2.39,0.11c-1.41,0.58-2.23,1.86-1.82,2.85c0.41,0.99,1.88,1.31,3.3,0.73
		c1.21-0.5,1.98-1.5,1.92-2.4V69.23z M554.87,70.8l-19.7,3.76c-0.27,0.05-0.49-0.13-0.49-0.4v-0.15c0-0.27,0.22-0.54,0.49-0.59
		l19.7-3.76c0.27-0.05,0.49,0.13,0.49,0.4v0.15C555.36,70.48,555.14,70.75,554.87,70.8z"/>
	<path d="M399.29,74.56v11.62c0,0.27-0.17,0.35-0.42,0.25c-0.64-0.26-1.49-0.24-2.33,0.11c-1.37,0.57-2.17,1.81-1.77,2.77
		c0.4,0.96,1.83,1.28,3.21,0.71c0.92-0.38,1.58-1.06,1.79-1.76c0.08-0.26,0.08-0.69,0.08-0.96c0-1.88,0-8.59,0-8.59
		c0-0.77,0.35-1.28,1.59-0.04c1.24,1.24,1.58,2.05,1.69,3.13c0.13,1.49-0.26,2.59-0.52,3.16c-0.11,0.24-0.3,0.54-0.22,0.55
		c0.03,0,0.07-0.01,0.13-0.06c0.08-0.06,1.07-0.86,1.27-3.69c0.23-3.31-3.26-4.72-4.29-7.33C399.37,74.12,399.29,74.37,399.29,74.56
		z"/>
	<path d="M514.38,73.92v11.62c0,0.27-0.17,0.35-0.42,0.25c-0.63-0.26-1.49-0.24-2.33,0.11c-1.37,0.57-2.17,1.81-1.77,2.77
		c0.4,0.96,1.83,1.28,3.21,0.71c0.92-0.38,1.58-1.06,1.79-1.76c0.08-0.25,0.08-0.69,0.08-0.96c0-1.88,0-8.59,0-8.59
		c0-0.77,0.34-1.28,1.59-0.04c1.24,1.24,1.58,2.05,1.69,3.13c0.13,1.49-0.26,2.59-0.52,3.16c-0.11,0.24-0.3,0.54-0.22,0.55
		c0.03,0.01,0.07-0.01,0.13-0.06c0.09-0.06,1.07-0.86,1.27-3.69c0.23-3.31-3.26-4.72-4.29-7.33
		C514.46,73.48,514.38,73.73,514.38,73.92z"/>
	<path d="M267.07,58.95l3.46,11.1c0.08,0.25-0.06,0.38-0.33,0.36c-0.68-0.06-1.5,0.22-2.19,0.8c-1.14,0.95-1.53,2.37-0.86,3.17
		c0.67,0.8,2.13,0.67,3.27-0.28c0.77-0.64,1.19-1.49,1.19-2.22c0-0.27-0.13-0.68-0.21-0.94c-0.56-1.79-2.56-8.2-2.56-8.2
		c-0.23-0.74-0.05-1.32,1.51-0.51c1.56,0.82,2.12,1.48,2.55,2.49c0.57,1.39,0.52,2.55,0.44,3.17c-0.04,0.26-0.12,0.61-0.04,0.59
		c0.03,0,0.07-0.04,0.11-0.09c0.06-0.08,0.77-1.14,0.11-3.9c-0.77-3.23-4.51-3.53-6.27-5.72C267.01,58.5,267.01,58.77,267.07,58.95z
		"/>
	<path d="M301.87,62.36c0-0.27-0.21-0.44-0.47-0.39l-9.94,1.85c-0.26,0.05-0.47,0.3-0.47,0.57v11.42c0,0.27-0.17,0.35-0.42,0.25
		c-0.63-0.26-1.49-0.24-2.33,0.11c-1.37,0.57-2.16,1.81-1.77,2.77c0.4,0.96,1.83,1.28,3.21,0.71c0.92-0.38,1.58-1.07,1.8-1.77
		c0.08-0.26,0.07-0.69,0.07-0.96c0-1.82,0-8.28,0-10.1c0-0.27,0.21-0.52,0.47-0.57l8.82-1.64c0.26-0.05,0.47,0.13,0.47,0.4v8.79
		c0,0.27-0.17,0.35-0.42,0.25c-0.63-0.25-1.49-0.24-2.32,0.11c-1.37,0.57-2.17,1.81-1.77,2.77c0.4,0.96,1.83,1.28,3.21,0.71
		c1.17-0.49,1.92-1.46,1.86-2.33V62.36z M291.54,65.08v-0.02c0-0.27,0.21-0.52,0.47-0.57l8.82-1.64c0.26-0.05,0.47,0.13,0.47,0.39
		v0.02c0,0.27-0.21,0.52-0.47,0.57l-8.82,1.64C291.75,65.52,291.54,65.35,291.54,65.08z"/>
	<path d="M582.07,63.23c0-0.27-0.21-0.44-0.47-0.39l-9.94,1.85c-0.26,0.05-0.48,0.3-0.48,0.57v11.42c0,0.27-0.17,0.35-0.42,0.25
		c-0.63-0.26-1.49-0.24-2.33,0.11c-1.37,0.57-2.17,1.81-1.77,2.77c0.4,0.96,1.83,1.28,3.21,0.71c0.92-0.38,1.58-1.07,1.8-1.77
		c0.08-0.26,0.07-0.69,0.07-0.96c0-1.82,0-8.27,0-10.1c0-0.27,0.21-0.52,0.47-0.57l8.82-1.64c0.26-0.05,0.47,0.13,0.47,0.39v8.79
		c0,0.27-0.17,0.35-0.42,0.25c-0.63-0.25-1.49-0.24-2.32,0.11c-1.37,0.57-2.17,1.81-1.77,2.77c0.4,0.96,1.83,1.28,3.21,0.71
		c1.17-0.49,1.92-1.46,1.86-2.33V63.23z M571.74,65.95v-0.02c0-0.27,0.21-0.52,0.47-0.57l8.82-1.64c0.26-0.05,0.47,0.13,0.47,0.39
		v0.02c0,0.27-0.21,0.52-0.47,0.57l-8.82,1.64C571.96,66.4,571.74,66.22,571.74,65.95z"/>
	<path d="M328.47,62.49c-0.13-0.31-0.21-0.06-0.21,0.13v4.33c0,3.89,0,8.98,0,8.98v2.64c0,0.27-0.17,0.35-0.42,0.25
		c-0.63-0.26-1.49-0.24-2.33,0.11c-1.37,0.57-2.17,1.81-1.77,2.77c0.4,0.96,1.83,1.28,3.21,0.71c0.92-0.38,1.58-1.06,1.79-1.76
		c0.08-0.25,0.08-0.69,0.08-0.96c0-0.66,0-1.92,0-3.27c0-0.27,0-0.7,0-0.96c0-1.23,0-4.36,0-4.36c0-0.77,0.35-1.28,1.59-0.04
		c0.47,0.47,0.81,0.87,1.05,1.26c0.14,0.22,0.18,0.58,0.08,0.78c-0.09,0.2-0.17,0.32-0.19,0.35c-0.07,0.14,0,0.17,0.14,0.07
		c0.02-0.01,0.09-0.07,0.2-0.2c0.1-0.12,0.25-0.02,0.31,0.24c0.05,0.2,0.08,0.41,0.1,0.63c0.13,1.49-0.26,2.59-0.52,3.16
		c-0.11,0.24-0.3,0.54-0.22,0.55c0.03,0,0.07-0.02,0.13-0.06c0.08-0.06,1.07-0.86,1.26-3.69c0.04-0.62-0.04-1.17-0.22-1.67
		c-0.09-0.25-0.11-0.65-0.05-0.91c0.12-0.47,0.22-1.05,0.27-1.75C332.98,66.51,329.5,65.1,328.47,62.49z M328.82,67.06v-0.31
		c0-0.77,0.35-1.28,1.59-0.04c1.24,1.24,1.58,2.05,1.69,3.13c0.03,0.41,0.03,0.79,0,1.13c-0.02,0.27-0.17,0.3-0.33,0.08
		c-0.8-1.1-1.92-2.04-2.69-3.14C328.93,67.71,328.82,67.27,328.82,67.06z"/>
	<path d="M314.82,56.21c-0.15,0-0.28,0.22-0.28,0.48v11.34c0,0.27-0.17,0.35-0.42,0.25c-0.63-0.26-1.49-0.24-2.33,0.11
		c-1.37,0.57-2.16,1.81-1.77,2.77c0.4,0.96,1.83,1.28,3.21,0.71c0.92-0.38,1.58-1.06,1.79-1.76c0.08-0.25,0.07-0.69,0.07-0.96
		c0-2.09,0-10.36,0-12.45C315.11,56.43,314.98,56.21,314.82,56.21z M312.84,70.92c-1.08,0.45-2.11,0.46-2.29,0.02
		c-0.18-0.44,0.55-1.16,1.63-1.6c1.08-0.45,2.11-0.46,2.29-0.02C314.66,69.75,313.93,70.47,312.84,70.92z"/>
	<path d="M391.95,61.19c0-0.27-0.21-0.44-0.47-0.39l-9.94,1.85c-0.26,0.05-0.47,0.3-0.47,0.57v11.42c0,0.27-0.17,0.35-0.42,0.24
		c-0.63-0.26-1.49-0.24-2.33,0.11c-1.37,0.57-2.17,1.81-1.77,2.77c0.4,0.96,1.83,1.28,3.21,0.71c0.92-0.38,1.58-1.07,1.79-1.77
		c0.08-0.25,0.08-0.69,0.08-0.96c0-1.82,0-8.27,0-10.1c0-0.27,0.21-0.52,0.47-0.57l8.82-1.64c0.26-0.05,0.47,0.13,0.47,0.39v8.79
		c0,0.27-0.17,0.35-0.42,0.25c-0.63-0.25-1.49-0.24-2.33,0.11c-1.37,0.57-2.16,1.81-1.77,2.77c0.4,0.96,1.83,1.28,3.21,0.71
		c1.18-0.48,1.92-1.46,1.87-2.33V61.19z"/>
	<path d="M439.12,79.68V66.39c0-0.27-0.22-0.45-0.49-0.4l-20.86,3.9c-0.27,0.05-0.49,0.31-0.49,0.59v11.74
		c0,0.27-0.18,0.36-0.43,0.25c-0.65-0.26-1.54-0.24-2.4,0.11c-1.41,0.59-2.23,1.86-1.82,2.85c0.41,0.99,1.89,1.31,3.3,0.73
		c0.95-0.39,1.63-1.1,1.85-1.82c0.08-0.26,0.08-0.71,0.08-0.98c0-1.87,0-8.51,0-10.38c0-0.27,0.22-0.54,0.49-0.59l9.08-1.69
		c0.27-0.05,0.49,0.13,0.49,0.4v9.04c0,0.27-0.18,0.36-0.43,0.25c-0.65-0.26-1.53-0.24-2.39,0.11c-1.41,0.59-2.23,1.86-1.82,2.85
		c0.41,0.99,1.89,1.31,3.3,0.73c1.21-0.5,1.98-1.5,1.92-2.4l0.01-10.7c0-0.27,0.22-0.54,0.49-0.59l9.07-1.69
		c0.27-0.05,0.49,0.13,0.49,0.41v9.04c0,0.27-0.18,0.36-0.43,0.25c-0.65-0.26-1.53-0.24-2.39,0.12c-1.41,0.58-2.23,1.86-1.82,2.85
		c0.41,0.99,1.88,1.31,3.3,0.73C438.41,81.58,439.18,80.58,439.12,79.68z"/>
	<path d="M501.15,70.46V57.17c0-0.27-0.22-0.45-0.49-0.41l-20.86,3.9c-0.27,0.05-0.49,0.31-0.49,0.59v11.75
		c0,0.27-0.18,0.36-0.43,0.25c-0.65-0.26-1.54-0.25-2.4,0.11c-1.41,0.59-2.23,1.86-1.82,2.85c0.41,0.99,1.89,1.31,3.3,0.73
		c0.95-0.39,1.63-1.1,1.85-1.82c0.08-0.26,0.08-0.71,0.08-0.98c0-1.87,0-8.51,0-10.38c0-0.27,0.22-0.54,0.49-0.59l9.08-1.69
		c0.27-0.05,0.49,0.13,0.49,0.41v9.04c0,0.27-0.18,0.36-0.43,0.26c-0.65-0.26-1.53-0.24-2.39,0.11c-1.41,0.59-2.23,1.86-1.82,2.85
		c0.41,0.99,1.89,1.31,3.3,0.73c1.21-0.5,1.97-1.5,1.92-2.4l0.01-10.7c0-0.27,0.22-0.54,0.49-0.59l9.08-1.69
		c0.27-0.05,0.49,0.13,0.49,0.4v9.04c0,0.27-0.18,0.36-0.43,0.26c-0.65-0.26-1.53-0.24-2.39,0.11c-1.41,0.59-2.23,1.86-1.82,2.85
		c0.41,0.99,1.88,1.31,3.3,0.73C500.44,72.36,501.21,71.36,501.15,70.46z"/>
	<path d="M362.05,77.22c0.05-0.27-0.14-0.48-0.41-0.48l-21.23,0.4c-0.27,0.01-0.53,0.23-0.58,0.5l-1.98,11.58
		c-0.05,0.27-0.24,0.32-0.47,0.18c-0.6-0.37-1.47-0.5-2.38-0.3c-1.49,0.34-2.51,1.46-2.27,2.5c0.24,1.04,1.64,1.61,3.13,1.27
		c1-0.23,1.79-0.81,2.13-1.48c0.12-0.25,0.19-0.69,0.24-0.96c0.32-1.85,1.44-8.39,1.75-10.24c0.05-0.27,0.31-0.49,0.58-0.5
		l9.24-0.18c0.27,0,0.46,0.21,0.41,0.48l-1.53,8.96c-0.05,0.27-0.24,0.32-0.47,0.18c-0.6-0.37-1.47-0.5-2.38-0.29
		c-1.49,0.34-2.51,1.46-2.27,2.5c0.24,1.04,1.64,1.61,3.13,1.27c1.27-0.29,2.2-1.15,2.3-2.04l1.81-10.59
		c0.05-0.27,0.31-0.49,0.58-0.5l9.24-0.18c0.27-0.01,0.46,0.21,0.41,0.48l-1.52,8.91c-0.05,0.27-0.24,0.32-0.47,0.18
		c-0.6-0.37-1.47-0.5-2.37-0.29c-1.49,0.34-2.51,1.46-2.27,2.5c0.24,1.04,1.64,1.61,3.13,1.28c1.27-0.29,2.2-1.15,2.3-2.04
		L362.05,77.22z M360.74,78.6l-20.06,0.39c-0.27,0.01-0.46-0.21-0.41-0.48l0.02-0.14c0.05-0.27,0.31-0.49,0.58-0.5l20.06-0.39
		c0.28-0.01,0.46,0.21,0.41,0.48l-0.02,0.15C361.27,78.37,361.01,78.59,360.74,78.6z"/>
</g>
</svg>
